<?xml version="1.0" encoding="utf-8"?>
<svg version="1.1" id="ec5cbd0b-cf0c-4bd0-90c6-bb52760af8ae"
	 xmlns="http://www.w3.org/2000/svg" xmlns:xlink="http://www.w3.org/1999/xlink" x="0px" y="0px" viewBox="0 0 250 250"
	 style="enable-background:new 0 0 250 250;" xml:space="preserve">
<style>
	path { fill: #000000; }
	@media (prefers-color-scheme: dark) {
		path { fill: #ffffff; }
	}
</style>
<path d="M55.4,120.8c1.3-1.3,2.5-2.7,3.5-4.2c0.8-1.3,1.3-2.2,3.3-2.2c1.5,0,3.1-1.3,4.4-2.3c3.1-2.2,5.9-4.7,9-7
	c2.7-2,3-3.1,1.1-5.8c-1.2-1.8-2.5-3.6-2.3-6s1.2-3.2,3.6-2.5c0.8,0.2,1.5,0.8,2.3,1.1c1,0.4,2,0.6,3,0.8c0.7,0,1.3-0.2,1.8-0.7
	c0.2-0.3,0-1.2-0.3-1.7c-0.9-1.3-1-3-0.1-4.3c0.8-1.5,2.2-1.6,3.7-1.5c1.1,0,2.8,1.1,3.2-0.6c0.2-1-0.8-2.3-1.4-3.3
	c-3.3-4.8-6.6-9.7-10.2-14.2c-5.1-6.3-10.4-12.6-16.1-18.4c-5.5-5.6-11.5-10.7-17.7-15.4c-3.4-2.6-7.8-3.8-11.7-5.7
	c-2.8-1.4-6.1-1.9-8.4-4.2c-0.3-0.4-0.6-0.9-0.8-1.3c0.5-0.1,1.1-0.5,1.5-0.4c3.2,0.8,6.3,1.6,9.5,2.6s6.2,1.9,9.1,3.1
	c3.1,1.3,6.1,2.9,9.2,4.4c1.8,0.9,3.5,1.8,5.3,2.8c0.7,0.4,1.7,0.7,2,1.4c1.6,2.9,4.4,4.4,6.9,6.3c4.9,3.9,10.2,7.5,14.7,11.9
	c3.8,3.8,6.7,8.6,10,12.9c0.5,0.7,0.9,1.6,1.5,2.2c0.3,0.3,0.9,0.4,1.3,0.6c0.1-0.5,0.4-1.1,0.3-1.5c-0.7-3-1.7-5.9-2.9-8.8
	c-2.3-4.9-5-9.7-7.8-14.4c-2.2-3.5-5-6.5-7.6-9.7c-0.8-1-1.4-2.2-2.2-3.2c-3.8-4.8-9.1-7.4-14.7-9.5c-3.3-1.3-6.4-3.3-9.5-5
	c-0.3-0.2-0.6-0.5-0.8-0.8c-0.2-0.7-0.4-1.4-0.5-2.1c0.7-0.1,1.6-0.4,2.1-0.1c5,2.7,10.6,3.5,15.9,5.2c4.2,1.2,8,3.7,10.9,7
	c3.9,4.6,8.2,8.9,12.2,13.4c7,8,13.7,16.3,18.5,25.8c1.5,3,3,6.1,4.8,9c1.5,2.3,3.1,4.4,5,6.3c0.9,0.6,1.9,1,3,0.9
	c1.6-0.2,3.1,0.9,3.6,2.5c0.8,2.4,1.2,4.9,2.3,7.2c1.1,2.4,2.4,4.6,4.1,6.7c3.9,4.9,8,9.5,11.9,14.4c4.3,5.3,8.5,10.8,12.8,16.2
	c1.9,2.5,3.8,5,5.9,7.3c1.4,1.6,3.3,2.9,4.9,4.4c3.9,4.1,4.8,10.3,2.1,15.3c-0.4,0.7-0.5,1.4-0.4,2.2c0.5,1.1-0.1,2.4-1.2,2.9
	c-0.2,0.1-0.3,0.1-0.5,0.1c-2.1,0.6-3.9,2.1-4.8,4.2c-0.8,1.5-1.9,1.9-3.6,2.1c-2.8,0.4-5.6,0.9-8.3,1.5c-1.5,0.3-2.6,1.6-2.7,3.1
	c-0.4,2.5-0.8,5.1-1,7.6c-0.4,5-0.6,10-2.1,14.8c-0.6,1.8-1.4,3.6-2,5.4s-1.2,3.6-1.9,5.4c-0.2,0.5-0.8,0.8-1.2,1.2
	c-0.2-0.5-0.4-1-0.6-1.5c-0.9-4.4,0.3-8.6,1.7-12.8c0.9-2.8,0.8-5.8,1.1-8.8c0-0.4-0.4-1-0.7-1.4c-0.4,0.4-1.1,0.8-1.2,1.3
	c-0.4,1.9-0.5,3.8-0.8,5.7c-0.2,1.4-0.6,2.9-1,4.3l-0.8-0.1c0.1-1.4,0.2-2.7,0.4-4c0.1-0.4,0.3-0.9,0.3-1.3
	c-0.1-0.7-0.3-1.4-0.5-2.1l-1.7,0.9l-0.7,0.3c-0.1-0.6-0.3-1.1-0.2-1.5c1.4-3.6-0.5-6.7-1.3-9.9c-0.9-4.2-4.1-7.1-6.5-10.4
	c-0.9-1.3-2.3-2.2-3.4-3.4c-0.7-0.8-1.3-1.7-1.8-2.7c-0.6-1.5-2.1-2.6-3.7-2.6c-3.2-0.1-6.4-0.9-9.3-2.4c-2.3-1.2-6.8-0.1-8.3,2.1
	s-2.4,4.4-3.7,6.5c-0.2,0.3-0.2,0.8-0.4,1c-0.5,0.4-1,0.8-1.6,1.1c-0.3-0.5-0.6-1-0.9-1.5s-0.6-1.1-0.9-1.7
	c-0.5,0.4-1.3,0.8-1.4,1.4c-0.2,0.8-0.5,1.6-1.1,2.3l58.3,71.4c0.2-3.8,1.5-7.4,3.7-9.2l1.3,5.3l0.4-0.1c0.3-1.4,0.6-2.8,1-4.4
	c0.6,1.5,1,2.6,1.5,3.8l0.5-0.1c-0.8-2.9,0.4-5.2,1.7-7.5c0.3-0.5,1.2-1.2,1.6-1.1c2.4,0.7,4.9,0,6.6-1.8c3.4-3.1,6.5-6.4,9.6-9.6
	c0.6-0.5,0.9-1.2,1-1.9c-0.2-1.9,1.3-3.1,1.9-4.6c0.7-1.7,1.2-3.6,1.8-5.4l-0.9-0.4c-1.5,1.7-2.9,3.4-4.2,5.2
	c-1.3,2-1.5,2.2-3.6,1.1c1.3-3.5,2.6-7,3.9-10.6l-0.7-0.4c-0.6,0.7-1.2,1.3-1.9,2c-1.4,1.6-2.8,3.1-4.2,4.7c-0.7,1-2,1.2-3,0.5
	c-0.1-0.1-0.1-0.1-0.2-0.2c-3.6-2.4-6.8-5.1-8.6-9.4c-1.4-3.4-1-7,1.9-9.2c2.5-1.9,5.2-3.7,8-5.2c1.4-0.8,3-1.2,4.6-1.1
	c3.9,0.6,7.7,1.6,11.5,2.6c1.2,0.2,2,1.4,1.8,2.6c0,0.1,0,0.1,0,0.2c-0.3,1.9-0.8,3.7-1.3,5.5c-0.7,2.1-1.8,4.1-2.9,6.6
	c4.3-2.2,7.9-5.5,10.5-9.5c0.5,3.7-2.4,5.8-3.6,8.8c0.7,0,1.3,0,1.6-0.3c2.9-3.4,6.7-6.1,8.4-10.4c0.2-0.9,1.1-1.5,2-1.5
	c7-0.5,12.8-5.6,14.2-12.5c0.3-1.2,0.9-2.2,1.8-3.1c1.7-1.8,3.8-3.4,5.5-5.2c2.4-2.6,2.5-4.1,0.8-7.1c-2.5-4.3-6.5-7.6-11.2-9.1
	c-1-0.4-2-0.8-3.4-1.4c2.3-1,1.6-2,0.7-3.1c-0.5-0.6-1-1.2-1.6-1.8c-1.2-1.4-3.1-2.2-3.2-4.5c0-0.7-1.2-1.5-2.1-1.9
	c-1.1-0.4-2.3-0.8-3.4-1c0.3-1.5-0.9-2.1-2.1-2.4c-1.1-0.3-2.2-0.2-3.3-0.4s-2.1-0.4-3.1-0.6c0.5-0.9,0.9-1.8,1.5-2.7
	c1-1.4,2-2.9,2.9-4.5c0.9-2,0.4-3.1-1.4-4.4c-1.8-1.1-3.5-2.3-5.1-3.7c-4.9-4.6-9.7-9.3-14.4-14c-1.4-1.4-2-3.5-1.5-5.4
	c0.7-3.2,1.4-6.4,1.8-9.6c1.3-7.1-0.9-14.4-5.8-19.7c1.7,7.1,1.3,9.9-1.5,11.8c-0.2-1.9-0.4-3.8-0.5-5.7c-0.8-7.8-5.1-13-12.2-16.1
	c-1.1-0.4-2.2-0.6-3.4-0.4c-2.6,0.2-5.1,0.7-7.7,0.8c-4.7,0.3-8.7-3.3-9-7.9c0-0.3,0-0.5,0-0.8c0-1.5,0.2-3.1,0.3-4.6l-0.7-0.2
	l-2.6,6.3L120,40.5l-0.2,0.5c5,3.7,6.3,5.7,6.2,9.8c-0.8-0.8-1.6-1.4-2.2-2.1c-5.6-5.8-12.9-7.6-20.5-7.2
	c-9.1,0.4-17.8,3.5-25.1,8.9c-6.3,4.9-12.3,10.2-18,15.8c-8,7.7-15.5,16-27.1,18.6v0.6l7.7,0.8c-2.2,3.7-6,4.2-9.7,4.9L55.4,120.8z"
	/>
</svg>
